# xmcd CD database file
#
# Track frame offsets:
#        150
#        17928
#        29981
#        42200
#        63583
#        79560
#        92817
#        108237
#        116390
#        130881
#        147795
#        165496
#        176685
#        190605
#        203438
#        217099
#        230183
#        243281
#
# Disc length: 3388 seconds
#
# Revision: 0
# Processed by: cddbd v1.5.2PL0 Copyright (c) Steve Scherf et al.
# Submitted via: CUERipper 2.1.5
#
DISCID=f90d3a12
DTITLE=Scott Gates - World Traveler
DYEAR=2011
DGENRE=Bluegrass
TTITLE0=Golden Haired Boy Golden Boy
TTITLE1=Sitting on Top of the World
TTITLE2=Hamilton County Breakdown
TTITLE3=Moonlight Waltz
TTITLE4=Cherokee Shuffle
TTITLE5=Blackberry Blossom
TTITLE6=The North Shore
TTITLE7=El Cumbachero
TTITLE8=Festival Kid
TTITLE9=Niraizza Mia
TTITLE10=Harvest Home Hornpipe
TTITLE11=Old Home Place
TTITLE12=Cuckoo's Nest
TTITLE13=Where My Possessions Be
TTITLE14=Turkey in the Straw
TTITLE15=Clinch Mountain Backstep
TTITLE16=Vivaldi Mandolin Concerto
TTITLE17=Ashoken Farewell
EXTD=
EXTT0=
EXTT1=
EXTT2=
EXTT3=
EXTT4=
EXTT5=
EXTT6=
EXTT7=
EXTT8=
EXTT9=
EXTT10=
EXTT11=
EXTT12=
EXTT13=
EXTT14=
EXTT15=
EXTT16=
EXTT17=
PLAYORDER=
